# xmcd
#
# Track frame offsets: 
#        150
#        11360
#        23884
#        36410
#        49969
#        64768
#        75309
#        89090
#        100317
#        112422
#        122957
#        135842
#        148480
#        159153
#        170958
#        182257
#        193334
#        207000
#        218949
#        234592
#        245610
#        255758
#        267925
#        279533
#        289788
#
# Disc length: 3986 seconds
#
# Revision: 0
# Processed by: cddbd v1.5.2PL0 Copyright (c) Steve Scherf et al.
# Submitted via: ExactAudioCopyFreeDBPlugin 1.0
#
DISCID=760f9019
DTITLE=Various Artist - Fabulous 50's Sock Hop [CD 3] R&B and Doo Wop
DYEAR=1900
DGENRE=Pop
TTITLE0=The Chords - Sh-Boom
TTITLE1=Four Tunes - I Understand Just How You Feel
TTITLE2=The Spaniels - Goodnite, Sweetheart, Goodnite
TTITLE3=The Penguins - Earth Angel
TTITLE4=The Moonglows - Sincerely
TTITLE5=Lymon, Frankie - Why Do Fools Fall In Love
TTITLE6=The Five Satins - In The Still Of The Night
TTITLE7=The Heartbeats - A Thousand Miles Away
TTITLE8=The Del-Vikings - Come Go With Me
TTITLE9=Johnnie and Joe - Over The Mountain, Across The Sea
TTITLE10=The Four Coins - Shangri-La
TTITLE11=The Rays - Silhouettes
TTITLE12=The Dubs - Could This Be Magic
TTITLE13=The Chantels - Maybe
TTITLE14=The Shields - You Cheated
TTITLE15=Clanton,, Jimmy - Just A Dream
TTITLE16=The Crests - 16 Candles
TTITLE17=The Skyliners - Since I Don’t Have You
TTITLE18=The Flamingos - I Only Have Eyes For You
TTITLE19=Phil Philips with The Twilights - Sea Of Love
TTITLE20=Little Anthony - The Imperials - Tears On My Pillow
TTITLE21=Dion - The Belmonts - Where Or When
TTITLE22=Charles, Jimmy - A Million To One
TTITLE23=The Capris - There’s A Moon Out Tonight
TTITLE24=The Shirelles - Dedicated To The One I Love
EXTD=
EXTT0=
EXTT1=
EXTT2=
EXTT3=
EXTT4=
EXTT5=
EXTT6=
EXTT7=
EXTT8=
EXTT9=
EXTT10=
EXTT11=
EXTT12=
EXTT13=
EXTT14=
EXTT15=
EXTT16=
EXTT17=
EXTT18=
EXTT19=
EXTT20=
EXTT21=
EXTT22=
EXTT23=
EXTT24=
PLAYORDER=
